<svg width="325" height="51" viewBox="0 0 325 51" fill="none" xmlns="http://www.w3.org/2000/svg">
<path d="M65.4844 0.975586V51H50.1768V31.7373H15.6797V51H0.445312V0.975586H15.6797V19.2861H50.1768V0.975586H65.4844ZM91.4854 51H74.5664L102.435 0.975586H123.016L150.299 51H133.49L128.766 41.918H96.4658L91.4854 51ZM101.776 31.5908H123.236L112.506 11.7788L101.776 31.5908ZM173.626 0.975586V35.0332L201.715 1.3418L229.73 35.0332V0.975586H244.049V51H222.772L201.458 24.8159L178.937 51H159.234V0.975586H173.626ZM280.194 19.7988L300.812 0.975586H321.832L293.158 25.7314L324.981 51H302.606L280.194 31.957H272.394V51H257.159V0.975586H272.394V19.7988H280.194Z" fill="url(#paint0_linear_10_11)"/>
<defs>
<linearGradient id="paint0_linear_10_11" x1="160.997" y1="-0.187499" x2="160.997" y2="78.1083" gradientUnits="userSpaceOnUse">
<stop stop-color="white"/>
<stop offset="0.855"/>
</linearGradient>
</defs>
</svg>
